<?xml version="1.0" encoding="utf-8"?>
<!-- Generator: Adobe Illustrator 16.0.0, SVG Export Plug-In . SVG Version: 6.00 Build 0)  -->
<!DOCTYPE svg PUBLIC "-//W3C//DTD SVG 1.1//EN" "http://www.w3.org/Graphics/SVG/1.1/DTD/svg11.dtd">
<svg version="1.1" id="Capa_1" xmlns="http://www.w3.org/2000/svg" xmlns:xlink="http://www.w3.org/1999/xlink" x="0px" y="0px"
	 width="220px" height="328px" viewBox="0 0 220 328" enable-background="new 0 0 220 328" xml:space="preserve">
<g>
	<path fill-rule="evenodd" clip-rule="evenodd" fill="#c90086" d="M22.175,276.128c0,3.086,0.868,5.459,2.601,7.115
		c1.756,1.66,3.847,2.49,6.277,2.49c2.353,0,4.435-0.87,6.248-2.605c1.831-1.754,2.746-4.173,2.748-7.261
		c0-3.103-0.937-5.447-2.806-7.029c-1.851-1.579-3.935-2.371-6.248-2.371c-2.488,0-4.581,0.934-6.279,2.806
		C23.021,271.124,22.175,273.41,22.175,276.128z M50.579,285.27v4.888H40.049v-4.106c-2.739,3.045-6.075,4.568-10.008,4.568
		c-3.645,0-6.848-1.244-9.604-3.73c-2.756-2.488-4.135-6.025-4.135-10.616c0-4.607,1.418-8.244,4.251-10.904
		c2.834-2.662,6.037-3.994,9.604-3.994c3.78,0,7.079,1.505,9.893,4.513v-11.078h-5.38v-4.888h10.875v35.347H50.579z"/>
	<polygon fill-rule="evenodd" clip-rule="evenodd" fill="#c90086" points="58.64,285.27 58.64,267.044 54.274,267.044 
		54.274,262.156 64.136,262.156 64.136,285.27 68.447,285.27 68.447,290.158 54.274,290.158 54.274,285.27 	"/>
	<polygon fill-rule="evenodd" clip-rule="evenodd" fill="#c90086" points="112.962,285.27 112.962,267.044 108.594,267.044 
		108.594,262.156 118.458,262.156 118.458,285.27 122.769,285.27 122.769,290.158 108.594,290.158 108.594,285.27 	"/>
	<path fill-rule="evenodd" clip-rule="evenodd" fill="#c90086" d="M124.136,267.047v-4.891h3.645v-9.345h5.496v9.345h5.179v4.891
		h-5.179v13.593c0,2.179,0.116,3.53,0.347,4.05c0.25,0.501,0.858,0.752,1.822,0.752c1.023,0,2.024-0.193,3.01-0.579v5.004
		c-1.41,0.501-2.817,0.752-4.225,0.752c-1.678,0-3.038-0.366-4.08-1.101c-1.041-0.75-1.698-1.687-1.966-2.806
		c-0.271-1.115-0.404-3.044-0.404-5.783v-13.883H124.136z"/>
	<path fill-rule="evenodd" clip-rule="evenodd" fill="#c90086" d="M160.754,279.742c-2.37-1.849-4.772-2.774-7.202-2.774
		c-1.522,0-2.797,0.443-3.818,1.329c-1.021,0.888-1.534,2.036-1.534,3.44c0,1.312,0.444,2.413,1.33,3.299
		c0.908,0.889,2.133,1.332,3.673,1.332c2.662,0,5.181-1.117,7.551-3.356V279.742z M170.906,285.27v4.888h-9.601v-3.415
		c-2.664,2.585-5.634,3.877-8.91,3.877c-2.546,0-4.766-0.827-6.654-2.487c-1.869-1.661-2.803-3.78-2.803-6.363
		c0-2.604,0.99-4.762,2.976-6.481c2.006-1.716,4.417-2.573,7.231-2.573c2.624,0,5.161,0.792,7.608,2.371v-2.774
		c0-1.427-0.135-2.527-0.404-3.298c-0.271-0.772-0.907-1.465-1.911-2.084c-0.983-0.615-2.275-0.924-3.875-0.925
		c-2.759,0-4.754,1.101-5.988,3.299l-5.263-1.391c2.333-4.356,6.363-6.537,12.09-6.537c2.102,0,3.915,0.292,5.438,0.871
		c1.542,0.559,2.688,1.29,3.442,2.196c0.75,0.886,1.252,1.853,1.503,2.894c0.271,1.04,0.404,2.7,0.406,4.976v12.958H170.906z"/>
	<polygon fill-rule="evenodd" clip-rule="evenodd" fill="#c90086" points="179.461,285.27 179.461,254.811 174.487,254.811 
		174.487,249.923 184.957,249.923 184.957,285.27 189.24,285.27 189.24,290.158 174.487,290.158 174.487,285.27 	"/>
	<path fill-rule="evenodd" clip-rule="evenodd" fill="#c90086" d="M91.825,301.901c-2.124,0.923-4.485,1.404-7.087,1.444
		l-3.248-5.295c1.698,0,6.41,0.099,7.762-0.514c1.347-0.602,2.351-1.332,3.007-2.201c0.675-0.867,1.107-1.696,1.303-2.488
		c0.191-0.772,0.289-2.084,0.289-3.933v-2.546c-0.871,1.1-2.229,2.139-4.083,3.125c-1.849,0.98-3.873,1.474-6.073,1.474
		c-4.01,0-7.28-1.389-9.804-4.167c-2.528-2.775-3.791-6.189-3.791-10.24c0-4.435,1.387-8.01,4.166-10.729
		c2.794-2.738,6.024-4.105,9.688-4.108c3.702,0,7,1.475,9.895,4.425v-3.992h10.527v4.891h-5.032v20.854
		c0,2.815-0.146,4.899-0.435,6.249c-0.288,1.367-0.994,2.757-2.11,4.164C95.7,299.741,94.042,300.938,91.825,301.901z
		 M75.944,276.446c0,2.834,0.819,5.147,2.459,6.941c1.658,1.795,3.769,2.691,6.334,2.691c2.508,0,4.667-0.896,6.481-2.691
		c1.811-1.812,2.717-4.134,2.717-6.97c0-2.875-0.906-5.177-2.717-6.913c-1.813-1.755-3.918-2.631-6.308-2.631
		s-4.481,0.865-6.274,2.601C76.843,271.192,75.944,273.517,75.944,276.446z"/>
	<path fill-rule="evenodd" clip-rule="evenodd" fill="#c90086" d="M44.706,298.813v3.312c3.451-2.489,6.601-3.735,9.451-3.735
		c1.773,0,3.234,0.424,4.386,1.274c1.17,0.83,1.934,1.858,2.293,3.086c0.357,1.207,0.534,2.98,0.539,5.317v13.358h4.61v4.783h-9.989
		v-17.913c0-2.075-0.313-3.424-0.935-4.048c-0.624-0.642-1.387-0.958-2.292-0.961c-2.377,0-5.065,1.16-8.063,3.48v14.658h4.723
		v4.783H34.518v-4.783h4.81v-17.829h-4.81v-4.783H44.706z"/>
	<path fill-rule="evenodd" clip-rule="evenodd" fill="#c90086" d="M72.913,312.51c0,2.699,0.836,4.917,2.517,6.65
		c1.698,1.721,3.765,2.577,6.2,2.577c2.47,0,4.532-0.87,6.194-2.604c1.681-1.752,2.519-3.963,2.519-6.623
		c0-2.676-0.848-4.884-2.546-6.623c-1.698-1.734-3.755-2.601-6.167-2.601c-2.531,0-4.615,0.885-6.255,2.659
		C73.731,307.721,72.913,309.906,72.913,312.51z M67.221,312.51c0-4.224,1.396-7.687,4.19-10.386
		c2.791-2.716,6.195-4.073,10.217-4.073c3.939,0,7.326,1.339,10.159,4.018c2.83,2.66,4.244,6.14,4.244,10.441
		c0,4.304-1.415,7.792-4.244,10.472c-2.812,2.679-6.199,4.015-10.159,4.018c-4.076,0-7.503-1.358-10.274-4.076
		C68.6,320.21,67.221,316.736,67.221,312.51z"/>
	<polygon fill-rule="evenodd" clip-rule="evenodd" fill="#c90086" points="102.792,321.426 102.792,303.596 98.517,303.596 
		98.517,298.815 108.166,298.815 108.166,321.426 112.385,321.426 112.385,326.208 98.517,326.208 98.517,321.426 	"/>
	<path fill-rule="evenodd" clip-rule="evenodd" fill="#c90086" d="M117.304,326.208v-9.394h4.812v0.903
		c0.168,1.282,0.857,2.341,2.064,3.171c1.228,0.831,2.67,1.244,4.333,1.244c1.733,0,3.121-0.3,4.159-0.906
		c1.037-0.602,1.554-1.442,1.554-2.517c0-1.039-0.432-1.803-1.301-2.293c-0.85-0.491-2.548-0.943-5.091-1.357
		c-3.775-0.642-6.475-1.67-8.095-3.086c-1.605-1.433-2.406-3.282-2.406-5.548c0-2.28,0.876-4.186,2.632-5.715
		c1.753-1.55,4.064-2.322,6.934-2.322c2.582,0,4.81,0.531,6.677,1.585v-1.159h4.783v9.082h-4.783v-1.668
		c-1.452-2.247-3.565-3.367-6.339-3.37c-1.414,0-2.583,0.313-3.509,0.935c-0.903,0.606-1.356,1.416-1.356,2.436
		c0,1.038,0.413,1.755,1.243,2.149c0.85,0.378,2.662,0.784,5.436,1.217c2.659,0.415,4.667,0.905,6.026,1.471
		c1.36,0.548,2.481,1.472,3.369,2.772c0.903,1.286,1.356,2.787,1.356,4.502c0,2.547-0.98,4.575-2.94,6.083
		c-1.947,1.492-4.473,2.236-7.584,2.236c-2.926,0-5.312-0.66-7.161-1.98v1.527H117.304z"/>
	<path fill-rule="evenodd" clip-rule="evenodd" fill="#c90086" d="M166.716,309.964c-0.377-1.924-1.378-3.66-2.998-5.207
		c-1.623-1.567-3.614-2.349-5.971-2.351c-2.15,0-3.99,0.708-5.52,2.124c-1.527,1.396-2.459,3.206-2.801,5.434H166.716z
		 M172.265,313.868h-23.038c0.34,2.529,1.339,4.577,2.999,6.142c1.66,1.568,3.785,2.349,6.368,2.349
		c3.756,0,6.725-1.506,8.914-4.527l4.757,2.095c-1.549,2.398-3.558,4.177-6.028,5.349c-2.473,1.15-5.059,1.725-7.755,1.725
		c-4.186,0-7.773-1.303-10.754-3.904c-2.963-2.624-4.441-6.15-4.441-10.585c0-4.208,1.443-7.667,4.328-10.386
		c2.908-2.714,6.235-4.075,9.991-4.075c3.678,0,7.009,1.329,9.99,3.989C170.594,304.682,172.149,308.626,172.265,313.868z"/>
	<path fill="#6E6F72" d="M37.659,116.753c-3.996,0-7.234,3.238-7.234,7.234c0,3.995,3.238,7.234,7.234,7.234
		c3.995,0,7.233-3.239,7.233-7.234v-7.234C44.892,116.753,39.33,116.753,37.659,116.753z"/>
	<path fill="#6E6F72" d="M52.133,116.753c3.995,0,7.233-3.239,7.233-7.235c0-3.995-3.238-7.234-7.233-7.234
		s-7.233,3.239-7.233,7.234v7.235C44.899,116.753,50.461,116.753,52.133,116.753z"/>
	<path fill="#6E6F72" d="M66.6,131.222c-3.995,0-7.233-3.239-7.233-7.235c0-3.995,3.238-7.234,7.233-7.234
		c3.998,0,7.236,3.239,7.236,7.234v7.235C73.835,131.222,68.271,131.222,66.6,131.222z"/>
	<path fill="#6E6F72" d="M95.539,160.161c-3.995,0-7.233-3.241-7.233-7.237s3.238-7.233,7.233-7.233s7.233,3.237,7.233,7.233v7.237
		C102.772,160.161,97.209,160.161,95.539,160.161z"/>
	<path fill="#6E6F72" d="M182.346,145.691c-3.995,0-7.233,3.237-7.233,7.233s3.238,7.237,7.233,7.237
		c3.998,0,7.236-3.241,7.236-7.237v-7.233C189.582,145.691,184.018,145.691,182.346,145.691z"/>
	<path fill="#6E6F72" d="M196.82,145.691c3.995,0,7.233-3.239,7.233-7.235c0-3.995-3.238-7.234-7.233-7.234
		s-7.233,3.239-7.233,7.234v7.235C189.587,145.691,195.149,145.691,196.82,145.691z"/>
	<path fill="#6E6F72" d="M153.41,174.628c-3.995,0-7.233,3.239-7.233,7.235c0,3.995,3.238,7.234,7.233,7.234
		s7.233-3.239,7.233-7.234v-7.235C160.643,174.628,155.081,174.628,153.41,174.628z"/>
	<path fill="#6E6F72" d="M167.884,174.628c3.995,0,7.233-3.239,7.233-7.234c0-3.997-3.238-7.236-7.233-7.236
		s-7.234,3.239-7.234,7.236v7.234C160.65,174.628,166.212,174.628,167.884,174.628z"/>
	<path fill="#6E6F72" d="M37.659,87.812c-3.996,0-7.234,3.237-7.234,7.233c0,3.996,3.238,7.235,7.234,7.235
		c3.995,0,7.233-3.239,7.233-7.235v-7.233C44.892,87.812,39.33,87.812,37.659,87.812z"/>
	<path fill="#6E6F72" d="M52.133,87.812c3.995,0,7.233-3.241,7.233-7.236c0-3.996-3.238-7.234-7.233-7.234s-7.233,3.238-7.233,7.234
		v7.236C44.899,87.812,50.461,87.812,52.133,87.812z"/>
	<path fill="#6E6F72" d="M81.076,102.28c3.995,0,7.233,3.237,7.233,7.234c0,3.995-3.238,7.235-7.233,7.235
		c-3.997,0-7.235-3.24-7.235-7.235v-7.234C73.84,102.28,79.405,102.28,81.076,102.28z"/>
	<path fill="#6E6F72" d="M66.6,102.28c-3.995,0-7.233-3.239-7.233-7.235c0-3.996,3.238-7.234,7.233-7.234
		c3.998,0,7.236,3.239,7.236,7.234v7.235C73.835,102.28,68.271,102.28,66.6,102.28z"/>
	<path fill="#6E6F72" d="M110.01,131.218c3.997,0,7.236,3.237,7.236,7.232c0,3.998-3.239,7.235-7.236,7.235
		c-3.995,0-7.233-3.238-7.233-7.235v-7.232C102.777,131.218,108.341,131.218,110.01,131.218z"/>
	<path fill="#6E6F72" d="M95.539,131.218c-3.995,0-7.233-3.24-7.233-7.236c0-3.997,3.238-7.234,7.233-7.234s7.233,3.238,7.233,7.234
		v7.236C102.772,131.218,97.209,131.218,95.539,131.218z"/>
	<path fill="#6E6F72" d="M138.945,160.152c3.997,0,7.236,3.239,7.236,7.233c0,3.996-3.239,7.236-7.236,7.236
		c-3.995,0-7.233-3.24-7.233-7.236v-7.233C131.711,160.152,137.276,160.152,138.945,160.152z"/>
	<path fill="#6E6F72" d="M182.346,116.748c-3.995,0-7.233,3.239-7.233,7.234c0,3.997,3.238,7.236,7.233,7.236
		c3.998,0,7.236-3.239,7.236-7.236v-7.234C189.582,116.748,184.018,116.748,182.346,116.748z"/>
	<path fill="#6E6F72" d="M196.82,116.748c3.995,0,7.233-3.239,7.233-7.235c0-3.995-3.238-7.234-7.233-7.234
		s-7.233,3.239-7.233,7.234v7.235C189.587,116.748,195.149,116.748,196.82,116.748z"/>
	<path fill="#6E6F72" d="M167.884,145.685c3.995,0,7.233-3.238,7.233-7.234c0-3.995-3.238-7.232-7.233-7.232
		s-7.234,3.237-7.234,7.232v7.234C160.65,145.685,166.212,145.685,167.884,145.685z"/>
	<path fill="#6E6F72" d="M81.076,73.337c3.995,0,7.233,3.239,7.233,7.234c0,3.997-3.238,7.234-7.233,7.234
		c-3.997,0-7.235-3.237-7.235-7.234v-7.234C73.84,73.337,79.405,73.337,81.076,73.337z"/>
	<path fill="#6E6F72" d="M66.6,73.335c-3.995,0-7.233-3.237-7.233-7.234c0-3.996,3.238-7.234,7.233-7.234
		c3.998,0,7.236,3.239,7.236,7.234v7.234C73.835,73.335,68.271,73.335,66.6,73.335z"/>
	<path fill="#6E6F72" d="M110.01,102.273c3.997,0,7.236,3.239,7.236,7.235c0,3.995-3.239,7.234-7.236,7.234
		c-3.995,0-7.233-3.239-7.233-7.234v-7.235C102.777,102.273,108.341,102.273,110.01,102.273z"/>
	<path fill="#6E6F72" d="M138.945,131.208c3.997,0,7.236,3.238,7.236,7.233c0,3.996-3.239,7.237-7.236,7.237
		c-3.995,0-7.233-3.241-7.233-7.237v-7.233C131.711,131.208,137.276,131.208,138.945,131.208z"/>
	<path fill="#6E6F72" d="M124.473,131.208c-3.998,0-7.236-3.24-7.236-7.235c0-3.995,3.238-7.234,7.236-7.234
		c3.995,0,7.233,3.239,7.233,7.234v7.235C131.707,131.208,126.142,131.208,124.473,131.208z"/>
	<path fill="#6E6F72" d="M182.346,87.804c-3.995,0-7.233,3.241-7.233,7.235c0,3.997,3.238,7.234,7.233,7.234
		c3.998,0,7.236-3.238,7.236-7.234v-7.235C189.582,87.804,184.018,87.804,182.346,87.804z"/>
	<path fill="#6E6F72" d="M196.82,87.804c3.995,0,7.233-3.237,7.233-7.232c0-3.997-3.238-7.236-7.233-7.236s-7.233,3.239-7.233,7.236
		v7.232C189.587,87.804,195.149,87.804,196.82,87.804z"/>
	<path fill="#6E6F72" d="M167.884,116.742c3.995,0,7.233-3.238,7.233-7.234c0-3.996-3.238-7.234-7.233-7.234
		s-7.234,3.239-7.234,7.234v7.234C160.65,116.742,166.212,116.742,167.884,116.742z"/>
	<path fill="#6E6F72" d="M52.133,29.94c3.995,0,7.233-3.239,7.233-7.234c0-3.997-3.238-7.234-7.233-7.234s-7.233,3.237-7.233,7.234
		v7.234C44.899,29.94,50.461,29.94,52.133,29.94z"/>
	<path fill="#6E6F72" d="M8.722,58.879c-3.998,0-7.236,3.237-7.236,7.233c0,3.996,3.239,7.235,7.236,7.235
		c3.995,0,7.233-3.239,7.233-7.235v-7.233C15.956,58.879,10.391,58.879,8.722,58.879z"/>
	<path fill="#6E6F72" d="M81.076,44.41c3.995,0,7.233,3.237,7.233,7.233c0,3.996-3.238,7.236-7.233,7.236
		c-3.997,0-7.235-3.24-7.235-7.236V44.41C73.84,44.41,79.405,44.41,81.076,44.41z"/>
	<path fill="#6E6F72" d="M66.6,44.41c-3.995,0-7.233-3.239-7.233-7.235c0-3.996,3.238-7.235,7.233-7.235
		c3.998,0,7.236,3.239,7.236,7.235v7.235C73.835,44.41,68.271,44.41,66.6,44.41z"/>
	<path fill="#6E6F72" d="M110.01,73.348c3.997,0,7.236,3.237,7.236,7.234c0,3.995-3.239,7.235-7.236,7.235
		c-3.995,0-7.233-3.24-7.233-7.235v-7.234C102.777,73.348,108.341,73.348,110.01,73.348z"/>
	<path fill="#6E6F72" d="M138.945,102.28c3.997,0,7.236,3.24,7.236,7.235c0,3.997-3.239,7.234-7.236,7.234
		c-3.995,0-7.233-3.237-7.233-7.234v-7.235C131.711,102.28,137.276,102.28,138.945,102.28z"/>
	<path fill="#6E6F72" d="M124.473,102.28c-3.998,0-7.236-3.237-7.236-7.233c0-3.997,3.238-7.235,7.236-7.235
		c3.995,0,7.233,3.238,7.233,7.235v7.233C131.707,102.28,126.142,102.28,124.473,102.28z"/>
	<path fill="#6E6F72" d="M182.346,58.879c-3.995,0-7.233,3.237-7.233,7.233c0,3.996,3.238,7.235,7.233,7.235
		c3.998,0,7.236-3.239,7.236-7.235v-7.233C189.582,58.879,184.018,58.879,182.346,58.879z"/>
	<path fill="#6E6F72" d="M196.82,58.879c3.995,0,7.233-3.24,7.233-7.236c0-3.996-3.238-7.233-7.233-7.233s-7.233,3.237-7.233,7.233
		v7.236C189.587,58.879,195.149,58.879,196.82,58.879z"/>
	<path fill="#6E6F72" d="M153.41,87.815c-3.995,0-7.233,3.239-7.233,7.234c0,3.997,3.238,7.235,7.233,7.235s7.233-3.239,7.233-7.235
		v-7.234C160.643,87.815,155.081,87.815,153.41,87.815z"/>
	<path fill="#6E6F72" d="M167.884,87.815c3.995,0,7.233-3.239,7.233-7.235c0-3.996-3.238-7.234-7.233-7.234
		s-7.234,3.239-7.234,7.234v7.235C160.65,87.815,166.212,87.815,167.884,87.815z"/>
	<path fill="#6E6F72" d="M81.076,15.471c3.995,0,7.233,3.238,7.233,7.234s-3.238,7.235-7.233,7.235
		c-3.997,0-7.235-3.239-7.235-7.235v-7.234C73.84,15.471,79.405,15.471,81.076,15.471z"/>
	<path fill="#6E6F72" d="M66.6,15.471c-3.995,0-7.233-3.239-7.233-7.234c0-3.995,3.238-7.235,7.233-7.235
		c3.998,0,7.236,3.241,7.236,7.235v7.234C73.835,15.471,68.271,15.471,66.6,15.471z"/>
	<path fill="#6E6F72" d="M110.01,44.408c3.997,0,7.236,3.239,7.236,7.234c0,3.996-3.239,7.236-7.236,7.236
		c-3.995,0-7.233-3.24-7.233-7.236v-7.234C102.777,44.408,108.341,44.408,110.01,44.408z"/>
	<path fill="#6E6F72" d="M95.539,44.407c-3.995,0-7.233-3.238-7.233-7.232c0-3.997,3.238-7.236,7.233-7.236s7.233,3.239,7.233,7.236
		v7.232C102.772,44.407,97.209,44.407,95.539,44.407z"/>
	<path fill="#6E6F72" d="M138.945,73.342c3.997,0,7.236,3.239,7.236,7.234c0,3.997-3.239,7.236-7.236,7.236
		c-3.995,0-7.233-3.239-7.233-7.236v-7.234C131.711,73.342,137.276,73.342,138.945,73.342z"/>
	<path fill="#6E6F72" d="M124.473,73.342c-3.998,0-7.236-3.239-7.236-7.235c0-3.995,3.238-7.234,7.236-7.234
		c3.995,0,7.233,3.239,7.233,7.234v7.235C131.707,73.342,126.142,73.342,124.473,73.342z"/>
	<path fill="#6E6F72" d="M153.41,58.877c-3.995,0-7.233,3.238-7.233,7.235c0,3.995,3.238,7.234,7.233,7.234s7.233-3.239,7.233-7.234
		v-7.235C160.643,58.877,155.081,58.877,153.41,58.877z"/>
	<path fill="#6E6F72" d="M167.884,58.877c3.995,0,7.233-3.239,7.233-7.235c0-3.995-3.238-7.235-7.233-7.235s-7.234,3.24-7.234,7.235
		v7.235C160.65,58.877,166.212,58.877,167.884,58.877z"/>
	<path fill="#6E6F72" d="M95.539,15.472c-3.995,0-7.233-3.239-7.233-7.236c0-3.995,3.238-7.233,7.233-7.233s7.233,3.239,7.233,7.233
		v7.236C102.772,15.472,97.209,15.472,95.539,15.472z"/>
	<path fill="#6E6F72" d="M138.945,44.405c3.997,0,7.236,3.24,7.236,7.235c0,3.996-3.239,7.234-7.236,7.234
		c-3.995,0-7.233-3.238-7.233-7.234v-7.235C131.711,44.405,137.276,44.405,138.945,44.405z"/>
	<path fill="#6E6F72" d="M124.473,44.405c-3.998,0-7.236-3.238-7.236-7.233c0-3.997,3.238-7.236,7.236-7.236
		c3.995,0,7.233,3.239,7.233,7.236v7.233C131.707,44.405,126.142,44.405,124.473,44.405z"/>
	<path fill="#6E6F72" d="M167.884,29.94c3.995,0,7.233-3.239,7.233-7.234c0-3.997-3.238-7.234-7.233-7.234s-7.234,3.237-7.234,7.234
		v7.234C160.65,29.94,166.212,29.94,167.884,29.94z"/>
	<path fill="#6E6F72" d="M138.945,15.47c3.997,0,7.236,3.238,7.236,7.235c0,3.995-3.239,7.234-7.236,7.234
		c-3.995,0-7.233-3.239-7.233-7.234V15.47C131.711,15.47,137.276,15.47,138.945,15.47z"/>
	<path fill="#6E6F72" d="M124.473,15.47c-3.998,0-7.236-3.238-7.236-7.234c0-3.996,3.238-7.235,7.236-7.235
		c3.995,0,7.233,3.24,7.233,7.235v7.234C131.707,15.47,126.142,15.47,124.473,15.47z"/>
	<path fill="#6E6F72" d="M52.133,145.691c3.995,0,7.233-3.239,7.233-7.235c0-3.995-3.238-7.234-7.233-7.234
		s-7.233,3.239-7.233,7.234v7.235C44.899,145.691,50.461,145.691,52.133,145.691z"/>
	<path fill="#6E6F72" d="M8.722,174.628c-3.998,0-7.236,3.239-7.236,7.235c0,3.995,3.239,7.234,7.236,7.234
		c3.995,0,7.233-3.239,7.233-7.234v-7.235C15.956,174.628,10.391,174.628,8.722,174.628z"/>
	<path fill="#6E6F72" d="M23.193,174.628c3.998,0,7.236-3.239,7.236-7.234c0-3.997-3.238-7.236-7.236-7.236
		c-3.995,0-7.233,3.239-7.233,7.236v7.234C15.96,174.628,21.524,174.628,23.193,174.628z"/>
	<path fill="#6E6F72" d="M182.346,174.628c-3.995,0-7.233,3.239-7.233,7.235c0,3.995,3.238,7.234,7.233,7.234
		c3.998,0,7.236-3.239,7.236-7.234v-7.235C189.582,174.628,184.018,174.628,182.346,174.628z"/>
	<path fill="#6E6F72" d="M196.82,174.628c3.995,0,7.233-3.239,7.233-7.234c0-3.997-3.238-7.236-7.233-7.236
		s-7.233,3.239-7.233,7.236v7.234C189.587,174.628,195.149,174.628,196.82,174.628z"/>
	<path fill="#6E6F72" d="M153.41,203.566c-3.995,0-7.233,3.238-7.233,7.233c0,3.995,3.238,7.234,7.233,7.234
		s7.233-3.239,7.233-7.234v-7.233C160.643,203.566,155.081,203.566,153.41,203.566z"/>
	<path fill="#6E6F72" d="M52.133,174.628c3.995,0,7.233-3.24,7.233-7.235s-3.238-7.234-7.233-7.234s-7.233,3.239-7.233,7.234v7.235
		C44.899,174.628,50.461,174.628,52.133,174.628z"/>
	<path fill="#6E6F72" d="M81.076,189.095c3.995,0,7.233,3.239,7.233,7.237c0,3.996-3.238,7.233-7.233,7.233
		c-3.997,0-7.235-3.237-7.235-7.233v-7.237C73.84,189.095,79.405,189.095,81.076,189.095z"/>
	<path fill="#6E6F72" d="M211.281,87.812c-3.997,0-7.235,3.237-7.235,7.233c0,3.996,3.238,7.235,7.235,7.235
		c3.995,0,7.233-3.239,7.233-7.235v-7.233C218.514,87.812,212.95,87.812,211.281,87.812z"/>
	<path fill="#6E6F72" d="M211.281,116.753c-3.997,0-7.235,3.238-7.235,7.234c0,3.995,3.238,7.234,7.235,7.234
		c3.995,0,7.233-3.239,7.233-7.234v-7.234C218.514,116.753,212.95,116.753,211.281,116.753z"/>
	<path fill="#6E6F72" d="M211.281,145.688c-3.997,0-7.235,3.239-7.235,7.236c0,3.996,3.238,7.234,7.235,7.234
		c3.995,0,7.233-3.238,7.233-7.234v-7.236C218.514,145.688,212.95,145.688,211.281,145.688z"/>
</g>
</svg>
